<?xml version="1.0" standalone="no"?>
<!DOCTYPE svg PUBLIC "-//W3C//DTD SVG 1.1//EN" "http://www.w3.org/Graphics/SVG/1.1/DTD/svg11.dtd">
<svg width="100%" height="100%" viewBox="0 0 1380 400" version="1.1" xmlns="http://www.w3.org/2000/svg" xmlns:xlink="http://www.w3.org/1999/xlink" xml:space="preserve" style="fill-rule:evenodd;clip-rule:evenodd;stroke-linejoin:round;stroke-miterlimit:1.41421;">
    <g transform="matrix(4.16667,0,0,4.16667,0,0)">
        <path d="M138.085,77.812C136.177,77.812 134.38,77.587 132.995,77.177L133.144,74.779C134.641,75.304 136.551,75.716 138.311,75.716C141.717,75.716 144.635,74.331 144.635,70.661C144.635,64.411 132.658,66.657 132.658,58.796C132.658,54.866 135.84,51.947 141.231,51.947C142.839,51.947 144.299,52.136 145.759,52.396L145.609,54.642C144.187,54.193 142.54,53.931 141.043,53.931C137.187,53.931 135.091,55.765 135.091,58.536C135.091,64.636 147.106,62.427 147.106,70.325C147.106,74.743 143.663,77.812 138.085,77.812ZM159.083,77.812C154.143,77.812 150.999,74.779 150.999,68.267C150.999,63.064 154.143,58.609 159.719,58.609C164.061,58.609 167.842,61.005 167.842,67.931C167.842,73.357 164.547,77.812 159.083,77.812ZM256.349,60.894C252.119,60.22 250.098,63.626 250.098,70.101L250.098,77.513L247.74,77.513L247.74,58.909L250.136,58.909C250.136,60.22 249.985,62.128 249.649,63.775L249.722,63.814C250.434,61.042 252.381,58.122 256.461,58.609L256.349,60.894ZM159.457,60.519C156.388,60.519 153.468,62.878 153.468,68.079C153.468,73.021 155.64,75.864 159.495,75.864C162.564,75.864 165.409,73.505 165.409,68.042C165.409,63.364 163.388,60.519 159.457,60.519ZM229.102,72.909C229.102,74.743 230.373,75.864 232.319,75.864C235.838,75.864 238.16,72.347 238.16,68.941L238.16,68.679C230.711,68.679 229.102,71.073 229.102,72.909ZM273.599,67.331L260.984,67.331C260.76,73.357 263.043,75.829 267.385,75.829C269.332,75.829 271.428,75.304 272.777,74.63L273,76.726C271.316,77.4 269.294,77.812 266.974,77.812C261.435,77.812 258.476,74.818 258.476,68.267C258.476,62.728 261.471,58.609 266.526,58.609C271.578,58.609 273.674,62.091 273.674,66.097C273.674,66.357 273.674,66.808 273.599,67.331ZM218.403,77.513L215.595,77.513L211.179,64.636C210.804,63.513 210.466,62.392 210.168,61.23L210.13,61.23C209.719,62.804 209.233,64.337 208.745,65.909L205.077,77.513L202.232,77.513L196.43,58.909L199.126,58.909L202.57,70.888C203.018,72.534 203.505,74.107 203.805,75.23L203.841,75.23C204.179,73.845 204.628,72.31 205.077,70.888L208.932,58.909L211.777,58.909L215.669,70.849C216.457,73.245 216.718,74.181 217.016,75.267L217.055,75.267C217.392,73.92 217.766,72.796 218.328,70.923L221.958,58.909L224.503,58.909L218.403,77.513ZM266.374,60.407C263.605,60.407 261.659,62.392 261.135,65.497L271.166,65.497C271.241,62.503 269.408,60.407 266.374,60.407ZM238.197,77.513C238.197,76.016 238.234,74.517 238.42,73.433L238.346,73.396C237.448,75.829 235.015,77.812 231.758,77.812C228.875,77.812 226.705,76.351 226.705,73.396C226.705,69.613 230.672,66.882 238.16,66.882L238.16,65.236C238.16,62.202 237.074,60.519 233.742,60.519C231.947,60.519 229.701,61.079 228.053,62.165L227.791,60.032C229.55,59.208 231.683,58.609 234.191,58.609C239.131,58.609 240.518,61.154 240.518,64.599L240.518,71.749C240.518,73.657 240.554,75.829 240.593,77.513L238.197,77.513ZM190.817,77.773C187.187,77.773 186.176,76.128 186.176,72.386L186.176,60.782L176.448,60.782L176.448,77.513L174.091,77.513L174.091,60.782L169.825,60.782L169.825,58.909L174.091,58.909L174.091,57.636C174.091,52.433 176.711,49.999 181.015,49.999C182.101,49.999 183.074,50.113 184.085,50.337L183.86,52.359C182.885,52.06 181.801,51.947 180.829,51.947C177.758,51.947 176.448,53.743 176.448,57.562L176.448,58.909L186.139,58.909L186.139,52.62L188.497,51.984L188.497,58.909L194.223,58.909L194.223,60.782L188.497,60.782L188.497,71.224C188.497,74.779 189.134,75.679 191.453,75.679C192.428,75.679 193.4,75.566 194.223,75.343L194.223,77.437C193.265,77.621 192.018,77.769 190.872,77.773L190.817,77.773ZM240.669,20.951L237.373,20.951C238.111,21.639 238.603,22.82 238.603,24.197C238.603,29.609 234.816,33.151 228.028,33.151C227.19,33.151 226.254,33.102 225.617,32.955C224.828,33.299 224.435,33.938 224.435,34.529C224.435,35.66 225.369,36.052 228.222,36.052L232.011,36.052C237.325,36.052 240.373,38.513 240.373,43.236C240.373,48.55 235.111,52.929 226.944,52.929C220.451,52.929 216.464,50.47 216.464,45.7C216.464,43.14 218.186,40.826 220.203,39.793C218.728,39.054 217.793,37.777 217.793,36.052C217.793,34.283 218.974,32.463 220.697,31.823C218.285,30.593 217.055,27.987 217.055,24.986C217.055,19.819 220.941,15.489 228.123,15.489C229.748,15.489 231.029,15.736 232.405,16.031L240.669,16.031L240.669,20.951ZM227.879,48.109C232.011,48.109 234.176,46.384 234.176,44.074C234.176,42.302 232.996,41.023 230.29,41.023L224.878,41.023C223.451,41.81 222.664,43.14 222.664,44.517C222.664,46.771 224.714,48.099 227.842,48.109L227.879,48.109ZM38.079,40.972C31.142,40.972 26.665,37.383 26.665,28.674C26.665,21.049 31.732,15.539 39.161,15.539C46.098,15.539 50.575,19.377 50.575,27.789C50.575,35.465 45.409,40.972 38.079,40.972ZM183.255,16.031L183.255,40.482L176.958,40.482L176.958,16.031L183.255,16.031ZM76.895,40.482L70.648,40.482L70.648,24.838C70.648,22.279 69.959,20.754 67.647,20.754C64.448,20.754 61.94,24.395 61.94,28.674L61.94,40.482L55.643,40.482L55.643,16.031L61.596,16.031C61.596,17.162 61.498,19.081 61.251,20.361L61.301,20.41C62.776,17.507 65.63,15.489 69.615,15.489C75.125,15.489 76.895,19.032 76.895,23.312L76.895,40.482ZM104.99,40.482L98.743,40.482L98.743,24.838C98.743,22.279 98.053,20.754 95.742,20.754C92.542,20.754 90.034,24.395 90.034,28.674L90.034,40.482L83.737,40.482L83.737,16.031L89.688,16.031C89.688,17.162 89.592,19.081 89.345,20.361L89.394,20.41C90.87,17.507 93.724,15.489 97.709,15.489C103.219,15.489 104.99,19.032 104.99,23.312L104.99,40.482ZM196.342,40.482L190.046,40.482L190.046,16.031L195.997,16.031C195.997,17.162 195.9,19.081 195.653,20.361L195.702,20.41C197.178,17.507 200.033,15.489 204.017,15.489C209.528,15.489 211.297,19.032 211.297,23.312L211.297,40.482L205.05,40.482L205.05,24.838C205.05,22.279 204.361,20.754 202.049,20.754C198.851,20.754 196.342,24.395 196.342,28.674L196.342,40.482ZM131.658,29.264L116.504,29.264C116.454,33.841 118.718,36.052 123.244,36.052C125.655,36.052 128.261,35.513 130.377,34.529L130.968,39.4C128.36,40.433 125.26,40.972 122.211,40.972C114.438,40.972 110.109,37.088 110.109,28.478C110.109,21 114.242,15.489 121.572,15.489C128.705,15.489 131.854,20.361 131.854,26.412C131.854,27.248 131.804,28.232 131.658,29.264ZM155.409,16.031L159.59,16.031L159.59,8.504L165.888,6.832L165.888,16.031L171.841,16.031L171.841,20.901L165.888,20.901L165.888,31.627C165.888,34.775 166.625,35.66 168.789,35.66C169.824,35.66 170.955,35.513 171.841,35.267L171.841,40.336C170.266,40.728 168.446,40.972 166.723,40.972C161.311,40.972 159.639,39.006 159.639,33.299L159.639,20.901L155.409,20.901L155.409,16.031ZM38.719,20.852C35.915,20.852 33.158,23.018 33.158,28.035C33.158,33.052 34.978,35.612 38.621,35.612C41.72,35.612 44.081,33.102 44.081,28.134C44.081,23.41 42.408,20.852 38.719,20.852ZM148.039,15.588C149.712,15.588 151.483,15.834 153.059,16.277L152.419,21.738C151.09,21.246 149.565,20.852 147.99,20.852C144.006,20.852 141.989,23.804 141.989,28.429C141.989,32.611 143.612,35.465 147.794,35.465C149.466,35.465 151.286,35.119 152.616,34.431L153.108,39.793C151.435,40.433 149.024,40.924 146.416,40.924C139.626,40.924 135.396,37.383 135.396,29.069C135.396,21.443 139.381,15.588 148.039,15.588ZM15.35,40.924C3.738,40.924 0,33.2 0,24.935C0,14.407 5.511,7.029 16.629,7.029C18.991,7.029 21.5,7.323 23.664,7.914L22.976,13.719C20.811,13.08 18.549,12.735 16.285,12.735C10.086,12.735 7.036,17.408 7.036,23.853C7.036,31.085 10.036,35.119 16.728,35.119C18.744,35.119 21.452,34.529 23.173,33.742L23.911,39.449C21.452,40.336 18.45,40.924 15.35,40.924ZM252.458,15.124C252.398,6.938 259.01,0.229 267.201,0.172L291.322,0C298.988,-0.054 305.357,5.742 306.183,13.2L295.388,13.2C294.737,11.638 293.191,10.538 291.396,10.551L267.275,10.723C264.906,10.739 262.994,12.681 263.011,15.05C263.011,15.05 263.055,21.02 263.07,23.212C263.096,27.226 260.771,31.982 260.771,31.982C260.771,31.982 269.552,29.702 273.657,29.673C277.765,29.644 291.53,29.546 291.53,29.546C293.381,29.532 294.942,28.338 295.529,26.689L306.28,26.689C305.557,34.158 299.27,40.043 291.604,40.099C291.604,40.099 278.195,40.193 273.034,40.23C267.874,40.267 249.057,44.912 249.057,44.912C249.057,44.912 252.557,28.757 252.521,24.02C252.503,21.118 252.458,15.124 252.458,15.124ZM227.879,20.066C224.878,20.066 223.056,21.886 223.056,24.492C223.056,27.198 224.828,28.872 227.879,28.872C230.733,28.872 232.602,27.248 232.602,24.543C232.602,21.738 230.831,20.066 227.879,20.066ZM306.621,54.753C301.462,54.79 288.052,54.886 288.052,54.886C280.402,54.939 274.044,49.166 273.197,41.726L283.953,41.615C284.589,43.215 286.156,44.347 287.976,44.332C287.976,44.332 301.744,44.236 305.849,44.211C309.953,44.177 318.77,46.33 318.77,46.33C318.77,46.33 316.375,41.611 316.347,37.597C316.329,35.406 316.286,29.433 316.286,29.433C316.271,27.063 314.334,25.153 311.962,25.17L287.842,25.341C286.01,25.352 284.459,26.515 283.851,28.135C279.881,28.166 274.272,28.203 273.522,28.209C273.379,28.212 273.233,28.216 273.092,28.224C273.8,20.741 280.091,14.841 287.767,14.786L311.889,14.618C320.077,14.561 326.782,21.174 326.842,29.357C326.842,29.357 326.879,35.353 326.901,38.258C326.934,42.996 330.621,59.093 330.621,59.093C330.621,59.093 311.78,54.718 306.621,54.753ZM121.373,20.114C118.767,20.114 116.947,22.033 116.602,24.986L125.606,24.986C125.703,21.934 124.032,20.114 121.373,20.114ZM180.106,5.257C182.272,5.257 184.042,6.929 184.042,9.045C184.042,11.16 182.272,12.884 180.106,12.884C177.941,12.884 176.22,11.16 176.22,9.045C176.22,6.98 177.941,5.257 180.106,5.257Z" style="fill:white;"/>
    </g>
</svg>
